<svg width="32" height="32" viewBox="0 0 32 32" fill="none" xmlns="http://www.w3.org/2000/svg">
<rect width="32" height="32" rx="4" fill="#006629"/>
<path d="M18.3769 22.7544C16.8336 23.3167 15.9886 23.3607 14.7255 23.3166C12.193 23.2283 9.84686 21.3505 8.97383 19.0535C7.95268 16.335 8.42883 13.8704 10.4087 11.8168C12.585 9.55698 15.2198 10.1401 17.9888 9.97231C19.5558 9.94246 21.5216 8.8195 21.929 8.68876C20.8544 8.77831 20.2509 8.90213 16.6797 8.45217C13.1085 8.00221 12.8299 11.2001 11.1702 12.9532C10.8251 12.7126 8.92505 15.5843 8.54149 15.3168C9.13177 11.9281 12.8508 5.84844 17.8633 7.43507C19.4266 7.95124 21.0637 8.30084 23.0271 8.26691C22.4797 8.6448 21.6561 9.68859 21.1496 10.0216C19.8171 10.8977 18.7528 10.9507 17.1363 11.1256C16.4364 11.2013 15.727 11.1902 15.0218 11.216C13.1767 11.2837 11.7158 12.076 10.6689 13.5874C9.4338 15.3705 9.47887 17.5627 10.7484 19.4992C11.8276 21.1453 13.9429 22.2911 16.006 21.9112C16.7722 21.7701 17.7224 21.5568 18.3769 21.0828C18.1524 20.9618 17.6915 20.5477 17.1978 19.942C16.6933 20.1519 16.5233 20.1469 16.006 20.2835C14.1641 20.77 12.3561 19.9704 11.4957 18.3355C10.6119 16.656 10.9587 14.6966 12.4254 13.4647C12.8328 13.1226 13.3525 12.8385 13.8659 12.7131C15.1724 12.3939 16.4962 12.1177 17.8284 11.9391C21.1282 11.4968 26.6036 16.1835 27.7497 18.9817C27.2548 19.2674 26.7395 19.6122 26.2276 19.8635C25.0254 20.4538 23.7627 20.7279 22.4253 20.4407C21.1258 20.1617 20.1528 19.3793 19.3227 18.3863C19.2348 18.2811 19.1508 18.1726 19.0356 18.0208C18.8337 17.7251 18.6511 17.4806 18.4906 17.2222C18.0808 16.5622 17.6808 15.896 17.2769 15.2323C16.5563 14.0082 15.0412 13.539 13.7956 14.1541C12.5701 14.7594 12.0389 16.2154 12.5673 17.5207C13.371 19.5058 16.4173 18.8655 17.9579 17.976C18.8092 20.0993 20.9003 20.8282 21.331 21.0679C21.331 21.0679 19.8265 22.2263 18.3769 22.7544ZM18.7015 14.9566C19.0447 15.5265 19.3878 16.0964 19.7511 16.7188C19.8849 16.9081 20.0109 17.1035 20.1539 17.2856C20.8589 18.184 21.6899 18.9055 22.8452 19.1552C23.4749 19.2913 24.0914 19.2625 24.7181 18.9808C23.9371 18.5353 23.3918 17.9023 22.9333 17.184C22.4794 16.4731 22.0404 15.7519 21.5647 15.0559C21.1033 14.3806 20.5484 13.7932 19.7816 13.4488C19.0214 13.1075 18.2635 13.1417 17.5178 13.4139C17.8518 13.828 18.1678 14.2198 18.498 14.6519C18.5162 14.6735 18.5343 14.6952 18.5651 14.7627C18.6058 14.8098 18.6466 14.8569 18.7015 14.9566Z" fill="white"/>
</svg>
