<svg width="64" height="64" viewBox="0 0 64 64" fill="none" xmlns="http://www.w3.org/2000/svg">
<rect width="64" height="64" rx="8" fill="url(#paint0_linear_10214_14154)"/>
<path d="M36.7537 45.5089C33.6672 46.6334 31.9772 46.7213 29.4509 46.6332C24.3859 46.4567 19.6937 42.7009 17.9477 38.1069C15.9054 32.67 16.8577 27.7408 20.8175 23.6336C25.1701 19.114 30.4397 20.2802 35.9776 19.9446C39.1115 19.8849 43.0432 17.639 43.858 17.3775C41.7088 17.5566 40.5019 17.8043 33.3595 16.9043C26.2171 16.0044 25.6599 22.4001 22.3404 25.9065C21.6502 25.4252 17.8501 31.1686 17.083 30.6337C18.2635 23.8562 25.7015 11.6969 35.7267 14.8701C38.8532 15.9025 42.1274 16.6017 46.0543 16.5338C44.9595 17.2896 43.3122 19.3772 42.2993 20.0432C39.6343 21.7954 37.5057 21.9014 34.2726 22.2512C32.8728 22.4026 31.4539 22.3803 30.0435 22.432C26.3534 22.5673 23.4316 24.152 21.3378 27.1748C18.8676 30.7411 18.9577 35.1254 21.4969 38.9983C23.6553 42.2906 27.8857 44.5821 32.012 43.8224C33.5445 43.5402 35.4448 43.1136 36.7537 42.1656C36.3049 41.9236 35.383 41.0953 34.3957 39.8841C33.3866 40.3037 33.0465 40.2937 32.012 40.567C28.3282 41.54 24.7123 39.9407 22.9915 36.6709C21.2238 33.312 21.9174 29.3932 24.8508 26.9295C25.6656 26.2451 26.705 25.677 27.7319 25.4261C30.3448 24.7878 32.9923 24.2353 35.6568 23.8782C42.2564 22.9937 53.2072 32.367 55.4995 37.9634C54.5095 38.5349 53.479 39.2244 52.4552 39.727C50.0507 40.9076 47.5255 41.4558 44.8506 40.8814C42.2517 40.3234 40.3055 38.7586 38.6454 36.7726C38.4695 36.5622 38.3016 36.3451 38.0713 36.0415C37.6675 35.4502 37.3021 34.9612 36.9813 34.4445C36.1615 33.1244 35.3616 31.7921 34.5538 30.4647C33.1125 28.0164 30.0824 27.0779 27.5912 28.3083C25.1402 29.5189 24.0778 32.4308 25.1347 35.0414C26.742 39.0117 32.8345 37.731 35.9159 35.9519C37.6185 40.1985 41.8006 41.6563 42.662 42.1359C42.662 42.1359 39.6529 44.4526 36.7537 45.5089ZM37.4031 29.9132C38.0893 31.053 38.7756 32.1928 39.5021 33.4375C39.7698 33.8161 40.0218 34.207 40.3077 34.5712C41.7179 36.3679 43.3799 37.811 45.6904 38.3104C46.9499 38.5826 48.1828 38.5249 49.4362 37.9616C47.8743 37.0707 46.7836 35.8045 45.8666 34.368C44.9589 32.9462 44.0808 31.5039 43.1294 30.1118C42.2065 28.7613 41.0969 27.5865 39.5631 26.8977C38.0428 26.2149 36.527 26.2833 35.0357 26.8277C35.7036 27.656 36.3355 28.4396 36.9961 29.3037C37.0323 29.3471 37.0686 29.3904 37.1302 29.5254C37.2117 29.6196 37.2931 29.7137 37.4031 29.9132Z" fill="white"/>
<defs>
<linearGradient id="paint0_linear_10214_14154" x1="-5.77778" y1="6.66667" x2="80" y2="89.7778" gradientUnits="userSpaceOnUse">
<stop stop-color="#006629"/>
<stop offset="1" stop-color="#00CC52"/>
</linearGradient>
</defs>
</svg>
